# xmcd
#
# Track frame offsets:
#	150
#	10497
#	21069
#	32516
#	42587
#	51889
#	64797
#	75201
#	85635
#	94005
#	109606
#	122773
#	132529
#	143711
#	155620
#	167262
#
# Disc length: 2281 seconds
#
# Revision: 1
# Processed by: cddbd v1.5.2PL0 Copyright (c) Steve Scherf et al.
# Submitted via: audiograbber 1.83.01
#
DISCID=c108e710
DTITLE=Connors, Tom - Merry Christmas Everybody
DYEAR=2015
DGENRE=Christmas
TTITLE0=Merry Christmas Everybody
TTITLE1=Merry Bells
TTITLE2=Christmas Angel
TTITLE3=Down On Christmas
TTITLE4=The Hockey Song (2008)
TTITLE5=My Hockey Mom (2008)
TTITLE6=Snowmobile Song
TTITLE7=Jongle Jangle Aeroplane
TTITLE8=Kiss Me The New Year In
TTITLE9=Mr. Snowflake
TTITLE10=Story Of Jesus (2012)
TTITLE11=An Orphan's Christmas
TTITLE12=One Blue Light
TTITLE13=Gloria
TTITLE14=Our Father
TTITLE15=Greetings And Merry Christmas Everybody
EXTD=
EXTT0=
EXTT1=
EXTT2=
EXTT3=
EXTT4=
EXTT5=
EXTT6=
EXTT7=
EXTT8=
EXTT9=
EXTT10=
EXTT11=
EXTT12=
EXTT13=
EXTT14=
EXTT15=
PLAYORDER=
